#!OML:ASF F:\VICON\USERDATA\INSTALL\rory3\rory3.ASF
:FULLY-SPECIFIED
:DEGREES
150
root 0.7388109908907904 17.69393378074845 37.055875177576084 1.757117834927456 2.8498673969844095 0.42635191305877185
lfemur -20.411663233889158 0.7057562146782218 -22.896016225493906
ltibia 47.12069775973352
lfoot 0.5347554893998666 -12.52816331258432
ltoes -7.569435685093039
rfemur -22.929511923445332 4.471071996966583 27.634930320551128
rtibia 72.70836963342713
rfoot 4.832102460657646 -4.091014562748386
rtoes -1.0291696869602842
lowerback 14.320554694501569 0.1446037015013552 1.187140345744935
upperback -0.8427195578232859 1.4742947793193006 0.8205134191551631
thorax -9.340765748780615 0.5560492059270604 -0.026054439945633667
lowerneck -19.84830558636418 -4.982783689070044 -1.955036084934835
upperneck 15.362898108845448 -7.106870099682834 3.1307748637106108
head 8.195748475365331 -2.9942117483980764 0.5040401219124271
lclavicle -1.9521729781560437e-15 1.1013548979497733e-15
lhumerus -52.36098226294253 -7.361134397480547 97.28787405073942
lradius 110.90631480646968
lwrist 46.578310078294656
lhand -18.105462380629024 6.388407174594608
lfingers 7.125020000000001
lthumb 8.321107748130919 36.54394868239364
rclavicle -1.952176533109819e-15 1.1013521049827522e-15
rhumerus -46.06747911606404 16.15226629024354 -101.88192822711616
rradius 113.72515284362721
rwrist -15.483117151597876
rhand -24.36895945356321 -109.74195233940509
rfingers 7.125020000000001
rthumb 3.707214653788507 15.643018580158902
151
root 0.7490681906049377 17.71810477167063 38.86031590683764 1.9419322275456234 3.1910650127397986 0.6456478347668655
lfemur -19.07625878861934 1.0261213633363735 -21.922931623602565
ltibia 46.73615261680888
lfoot 0.6218417161148682 -11.953965907848719
ltoes -7.637504693490451
rfemur -23.695508725532054 4.467433412850278 27.636955390768158
rtibia 72.38356537975258
rfoot 5.06811858381277 -3.5534364242201857
rtoes -0.9444410836702235
lowerback 14.4348064479272 0.13385334742354874 1.1081477119152114
upperback -0.8110838917928702 1.3071967015220767 0.710793911172643
thorax -9.22263176693469 0.5858242166481838 0.24336212536508578
lowerneck -19.899811812143962 -5.002387132255697 -1.979442773764074
upperneck 15.346918095755871 -7.076324349240822 3.0957883931026884
head 8.223234778426255 -2.939888328408062 0.5272312547578253
lclavicle -1.9521729781560437e-15 1.1013548979497733e-15
lhumerus -52.3310642830445 -7.862627181622674 97.15579863877717
lradius 110.65943197488457
lwrist 46.332490411638915
lhand -18.194822957448178 6.331897940171952
lfingers 7.125020000000001
lthumb 8.294551530822732 36.4565701937618
rclavicle -1.952176533109819e-15 1.1013521049827522e-15
rhumerus -46.28674448260465 16.080423324289345 -102.03953914434445
rradius 113.70781144512253
rwrist -15.803975239467443
rhand -24.523970536385793 -114.21661195461311
rfingers 7.125020000000001
rthumb 3.6623805234565543 15.146226837408275
152
root 0.7417823975725553 17.697675615472015 38.15461180166004 1.9247203017776922 3.06893525650065 0.6414696426312159
lfemur -19.378938071278203 0.8088434754953087 -22.862183813553134
ltibia 46.365951580877805
lfoot 0.04765094030659833 -11.214652632379908
ltoes -7.3230135143690855
rfemur -24.13027954581132 4.630855794106312 27.507691065094754
rtibia 71.28752883211227
rfoot 4.177415457882057 -3.747962803050817
rtoes -1.2233517331794321
lowerback 14.514220522925454 0.08115936191958514 0.989128435580605
upperback -0.7805294479058557 1.1514206844165713 0.6368655275599666
thorax -9.418677390896699 0.4012368703610645 0.014492315168161268
lowerneck -19.902187092738842 -4.9536137980114034 -1.9777712229006323
upperneck 15.426330552398495 -6.984284861446656 3.1057694519266135
head 8.234611533989847 -2.891322996722941 0.5416842495288107
lclavicle -1.9521729781560437e-15 1.1013548979497733e-15
lhumerus -51.659052036739254 -8.247716745477325 97.12605079799414
lradius 110.70449362689813
lwrist 46.38556776211335
lhand -18.10847438060556 6.471685115707768
lfingers 7.125020000000001
lthumb 8.397040963048719 36.45788328046768
rclavicle -1.952176533109819e-15 1.1013521049827522e-15
rhumerus -46.59606925638251 15.970380875871323 -102.18847540355736
rradius 113.58970115613067
rwrist -16.00799246128093
rhand -24.2746327184191 -110.72693412121004
rfingers 7.125020000000001
rthumb 3.739480941798739 15.383225711514925
153
root 0.7512412731026731 17.727198287455504 39.56579367771225 2.0638366774804577 3.3870249776661363 0.8088236515778422
lfemur -17.411027822916502 1.337583755411261 -21.82265895991753
ltibia 46.167103243723886
lfoot 0.8908601529268803 -10.220100670211279
ltoes -7.883232449202234
rfemur -23.68295189684937 4.940999258469005 27.90850310357081
rtibia 68.94135549228801
rfoot 3.762829432646436 -4.082909504010921
rtoes -1.1976407349581033
lowerback 14.623730681013262 0.01608190600668863 0.8988560360230067
upperback -0.7355275516689405 1.0866276375315294 0.631554917452919
thorax -9.445859288898747 0.3296557530810082 0.03621489609904591
lowerneck -19.978069658732338 -4.987246664835728 -1.9827007966814378
upperneck 15.392375319382875 -6.948305567979445 3.064330914002839
head 8.226807189397608 -2.8780141227325458 0.5429862992820566
lclavicle -1.9521729781560437e-15 1.1013548979497733e-15
lhumerus -50.48971950052588 -8.407493232741004 97.20911094292755
lradius 110.80429258057192
lwrist 46.325500328765585
lhand -18.18888993150892 6.495113937362356
lfingers 7.125020000000001
lthumb 8.32633786142736 36.354360564541686
rclavicle -1.952176533109819e-15 1.1013521049827522e-15
rhumerus -46.91933802968597 15.88753655131964 -102.29344556297868
rradius 113.432921229274
rwrist -16.07246721447863
rhand -24.128852558786807 -107.96847437072182
rfingers 7.125020000000001
rthumb 3.6175273643883035 14.84470174172113
